<svg version="1.1" id="Layer_1" xmlns="http://www.w3.org/2000/svg" xmlns:xlink="http://www.w3.org/1999/xlink" x="0px" y="0px"
	 width="100%" viewBox="0 0 1024 1024" enable-background="new 0 0 1024 1024" xml:space="preserve">
<path fill="#000000" opacity="1.000000" stroke="none" 
	d="
M487.382446,468.375885 
	C479.098633,451.702972 488.115173,436.822083 506.299744,436.687164 
	C522.290649,436.568542 538.283081,436.623352 554.274719,436.661743 
	C560.329346,436.676270 560.049988,436.766998 560.409241,443.940582 
	C560.659668,448.939636 558.633606,450.201935 554.009888,450.128815 
	C539.354126,449.897003 524.692932,449.997650 510.033875,449.977722 
	C508.535522,449.975708 507.033722,449.971924 505.539398,450.064087 
	C501.116394,450.336823 498.708130,452.957916 498.723969,457.147369 
	C498.740234,461.452942 501.418091,463.869141 505.788605,463.902985 
	C516.115723,463.982971 526.443970,463.988281 536.771362,463.941406 
	C540.632263,463.923859 544.418457,464.283203 548.117615,465.394806 
	C557.162476,468.112823 562.556458,475.653931 562.068176,484.872009 
	C561.529358,495.044952 556.079102,501.372375 546.408691,503.437012 
	C542.269165,504.320801 538.132751,504.173035 533.978516,504.177582 
	C519.652405,504.193329 505.324310,504.047394 491.001404,504.260773 
	C486.413239,504.329132 484.323792,503.165253 484.581451,498.129578 
	C484.925903,491.397156 484.690063,491.184418 491.110260,491.139038 
	C505.935272,491.034241 520.761230,491.064880 535.586853,491.036469 
	C537.252258,491.033295 538.918457,491.029510 540.583008,490.981262 
	C545.065369,490.851440 547.414673,488.215485 547.505737,484.047577 
	C547.596313,479.906891 544.831055,477.486053 540.874390,477.363434 
	C532.055115,477.090149 523.223083,477.252960 514.396912,477.167053 
	C509.746246,477.121796 505.096741,477.468903 500.453735,476.526306 
	C495.160522,475.451782 490.724976,473.198456 487.382446,468.375885 
z"/>
<path fill="#000000" opacity="1.000000" stroke="none" 
	d="
M735.104858,484.881104 
	C735.261963,469.929352 735.500977,455.462402 735.515015,440.995209 
	C735.518127,437.741455 736.619690,436.601196 739.838806,436.604034 
	C756.652466,436.618958 773.472961,436.154907 790.278381,436.492340 
	C810.166138,436.891693 814.899048,452.806580 810.877930,466.153442 
	C809.185059,471.772400 805.199097,475.372192 799.680115,477.404724 
	C797.529114,478.196930 795.052734,478.139282 792.632324,480.264679 
	C799.204590,487.726196 805.773987,495.184448 812.610352,502.945831 
	C802.251709,506.129944 796.292908,504.525116 790.526428,497.703705 
	C786.228149,492.619202 781.805603,487.639008 777.550232,482.519409 
	C775.713318,480.309540 773.663574,479.196564 770.688782,479.297089 
	C765.034302,479.488159 759.366821,479.451813 753.708862,479.326294 
	C750.536377,479.255920 749.148865,480.474731 749.225647,483.714600 
	C749.347839,488.872864 749.120911,494.040192 749.277893,499.196503 
	C749.387451,502.796082 748.030029,504.507233 744.328918,504.211182 
	C742.673523,504.078766 740.999695,504.118774 739.336182,504.159332 
	C736.687561,504.223846 735.377808,503.180084 735.398071,500.328857 
	C735.433594,495.342133 735.216614,490.353577 735.104858,484.881104 
M797.691040,459.220978 
	C797.362915,452.260284 795.160706,450.101624 788.195862,450.066345 
	C779.061829,450.020050 769.925720,449.910706 760.793762,450.049011 
	C747.476013,450.250702 749.512573,447.907135 749.215149,462.235474 
	C749.143372,465.695526 750.457153,466.936066 753.877197,466.897675 
	C765.501221,466.767181 777.127747,466.793304 788.752930,466.843689 
	C793.563477,466.864532 796.723022,464.952545 797.691040,459.220978 
z"/>
<path fill="#000000" opacity="1.000000" stroke="none" 
	d="
M372.008453,461.999908 
	C371.997192,467.993835 371.888306,473.489685 371.995636,478.981323 
	C372.168976,487.848083 375.366302,491.015320 384.140015,491.080170 
	C392.297455,491.140442 400.455750,491.103790 408.613617,491.085785 
	C417.494415,491.066162 421.482086,487.287140 421.569336,478.417450 
	C421.688873,466.264923 421.764069,454.106506 421.497986,441.958527 
	C421.405731,437.747345 422.789032,436.179382 426.881012,436.622925 
	C428.691467,436.819214 430.539764,436.694214 432.370270,436.669983 
	C434.717010,436.638947 435.654175,437.929657 435.647125,440.103424 
	C435.601288,454.229065 436.080231,468.382874 435.337585,482.472107 
	C434.654510,495.430969 428.311676,502.350006 415.669891,503.644043 
	C402.790863,504.962372 389.706482,505.106262 376.820587,503.466949 
	C365.084167,501.973846 358.224243,494.327240 357.851410,482.589752 
	C357.407623,468.618561 357.742401,454.623383 357.672699,440.638947 
	C357.659210,437.935608 358.714081,436.565552 361.487122,436.713318 
	C361.652802,436.722137 361.820099,436.710327 361.986206,436.700348 
	C371.965027,436.101440 371.962189,436.101379 371.972748,446.016754 
	C371.978210,451.177826 371.995789,456.338867 372.008453,461.999908 
z"/>
<path fill="#000000" opacity="1.000000" stroke="none" 
	d="
M667.976196,493.959869 
	C660.913757,480.178253 654.028442,466.720093 647.164795,453.304291 
	C644.949463,453.791992 644.719727,455.438049 644.076721,456.675812 
	C636.940491,470.411804 629.647949,484.071899 622.825928,497.962830 
	C620.547119,502.603149 617.887817,505.151520 612.544678,504.246094 
	C610.133301,503.837494 607.563538,504.714783 605.297363,503.573669 
	C604.252563,502.023224 605.297546,500.919250 605.894226,499.803070 
	C616.487305,479.986267 627.213806,460.239532 637.620300,440.325470 
	C639.664734,436.413177 642.642578,436.494873 645.961060,436.681732 
	C649.401062,436.875488 653.108826,435.530090 655.433838,440.077545 
	C665.586121,459.933655 676.037842,479.636627 686.371643,499.399963 
	C686.978821,500.561188 687.755371,501.701996 687.214783,503.539001 
	C683.207642,504.783783 678.928284,504.336121 674.735535,503.886932 
	C672.243286,503.619904 671.835999,500.931641 670.785339,499.104279 
	C669.872986,497.517426 669.028076,495.891815 667.976196,493.959869 
z"/>
<path fill="#000000" opacity="1.000000" stroke="none" 
	d="
M923.441467,473.622314 
	C928.689514,483.587677 933.769836,493.222229 939.056335,503.247833 
	C934.185608,504.813812 930.058777,504.218109 926.014221,503.988098 
	C923.481750,503.844055 922.821899,501.340363 921.838135,499.456055 
	C914.216553,484.858459 906.616394,470.249634 898.999084,455.649811 
	C898.543579,454.776703 897.996765,453.951172 897.509521,453.132263 
	C895.597107,453.199127 895.438110,454.769562 894.880371,455.839691 
	C887.961609,469.115021 881.073914,482.406616 874.202759,495.706726 
	C869.382996,505.036255 866.952087,506.086945 855.956360,503.439148 
	C854.893433,501.424255 856.396362,499.959412 857.203613,498.438416 
	C867.497070,479.044312 877.954346,459.736053 888.098633,440.264587 
	C890.790710,435.097168 895.168030,437.196136 899.003723,436.671051 
	C902.332092,436.215424 904.485718,437.346222 906.120056,440.592682 
	C911.654053,451.584900 917.529114,462.405396 923.441467,473.622314 
z"/>
<path fill="#000000" opacity="1.000000" stroke="none" 
	d="
M146.631714,461.358398 
	C145.100281,458.406342 143.727707,455.788910 142.327026,453.117889 
	C140.070297,454.082184 139.782684,456.047791 138.975754,457.585144 
	C132.016418,470.843903 124.832253,483.995636 118.310631,497.467590 
	C115.741783,502.774139 112.528343,505.160400 106.772285,504.250702 
	C104.841347,503.945557 102.773392,504.627563 100.975861,503.520569 
	C99.966164,501.835205 101.103226,500.603180 101.779190,499.333130 
	C112.175804,479.798462 122.703812,460.332306 132.908463,440.698029 
	C134.861710,436.939880 137.563095,436.466675 141.035019,436.655182 
	C144.692398,436.853790 148.436493,435.737183 150.822968,440.428223 
	C160.931366,460.298004 171.387009,479.991058 181.704788,499.754425 
	C182.230576,500.761505 182.967194,501.743439 182.542786,503.000763 
	C174.447250,506.301971 169.164001,504.530426 165.258835,497.093811 
	C159.070923,485.310242 152.943573,473.494904 146.631714,461.358398 
z"/>
<path fill="#000000" opacity="1.000000" stroke="none" 
	d="
M307.272339,501.949860 
	C307.417297,502.728882 307.372772,503.603424 307.272308,503.609924 
	C300.577423,504.041321 293.404297,506.315765 287.469330,501.970154 
	C274.303040,492.329803 261.530609,482.151306 248.614090,472.170898 
	C247.988037,471.687195 247.520081,470.998871 247.042557,470.475952 
	C247.530029,468.027954 249.459763,467.107941 250.974838,465.907288 
	C260.765381,458.148346 271.148895,451.034760 280.259308,442.551178 
	C288.307770,435.056396 297.178253,436.739868 306.199310,436.837402 
	C306.487213,437.306396 306.775146,437.775391 307.063049,438.244415 
	C294.031647,448.530396 281.000244,458.816376 267.172333,469.731049 
	C280.720276,480.569977 293.888519,491.105133 307.272339,501.949860 
z"/>
<path fill="#000000" opacity="1.000000" stroke="none" 
	d="
M230.767471,442.166687 
	C230.437622,438.122864 231.897446,436.335205 235.630005,436.654602 
	C236.952332,436.767761 238.309372,436.800140 239.622284,436.638977 
	C244.032639,436.097473 245.374588,438.012360 245.329300,442.349243 
	C245.134537,460.999268 245.261017,479.652435 245.212723,498.304321 
	C245.197769,504.077789 244.933289,504.042053 237.649338,504.228851 
	C233.164658,504.343872 230.576828,503.704651 230.670685,498.102570 
	C230.980316,479.622253 230.772903,461.133270 230.767471,442.166687 
z"/>
<path fill="#000000" opacity="1.000000" stroke="none" 
	d="
M396.708740,550.063171 
	C402.894379,556.567261 402.294617,562.135925 394.904022,568.490234 
	C396.042114,572.280334 399.846588,574.588257 401.112030,578.643066 
	C397.917725,580.880615 395.265198,580.383789 392.962830,577.465210 
	C391.522766,575.639771 390.042053,573.828735 388.791718,571.875488 
	C387.040771,569.140259 384.447144,568.950745 381.763092,569.474548 
	C378.351166,570.140503 379.688599,573.077881 379.400299,575.188354 
	C379.184540,576.767761 379.843567,578.815857 377.806061,579.502502 
	C374.839905,580.502014 372.851074,579.481873 372.832153,576.081787 
	C372.786896,567.941284 372.812927,559.800293 372.836243,551.659607 
	C372.841309,549.898010 373.230225,547.995178 375.337494,547.997437 
	C382.396942,548.005188 389.631897,546.318054 396.708740,550.063171 
M379.406494,559.339111 
	C379.671539,560.262207 379.657806,561.469055 380.254120,562.054993 
	C382.006897,563.777100 391.289642,563.268433 392.973969,561.508606 
	C394.079926,560.353027 394.442352,558.967712 394.022003,557.408325 
	C393.542297,555.629028 392.357513,554.506775 390.557831,554.348328 
	C388.266693,554.146606 385.949463,554.259155 383.652191,554.105774 
	C380.428802,553.890442 379.076660,555.360718 379.406494,559.339111 
z"/>
<path fill="#000000" opacity="1.000000" stroke="none" 
	d="
M603.675598,554.184692 
	C600.223999,554.180481 597.227844,554.208008 594.232788,554.161743 
	C591.920349,554.125977 590.346130,554.741089 590.410950,557.495972 
	C590.476196,560.270081 592.190857,560.724548 594.423157,560.702148 
	C597.085693,560.675476 599.749207,560.677551 602.411499,560.718201 
	C604.582458,560.751343 607.051208,560.520386 606.982666,563.792847 
	C606.917114,566.927185 604.437256,566.854675 602.300598,566.976807 
	C599.810791,567.119080 597.309631,567.102600 594.813782,567.090881 
	C592.507019,567.080017 590.892395,567.853760 590.774536,570.424805 
	C590.640930,573.337463 592.852722,572.939941 594.601929,572.989563 
	C597.928345,573.083679 601.258728,573.028198 604.586609,573.084961 
	C606.859192,573.123779 609.052002,573.359680 609.112610,576.425537 
	C609.170654,579.361206 607.286621,580.058350 604.854919,580.054138 
	C599.196777,580.044373 593.538696,579.994263 587.880554,579.990234 
	C585.000183,579.988159 583.684814,578.682373 583.716919,575.716797 
	C583.801514,567.895569 583.845337,560.070740 583.693909,552.251526 
	C583.624084,548.644348 585.356689,547.635620 588.585205,547.703979 
	C593.742249,547.813232 598.903259,547.736938 604.062561,547.742981 
	C606.320923,547.745667 608.600891,547.792725 608.625488,550.926453 
	C608.649841,554.041809 606.422058,554.188782 603.675598,554.184692 
z"/>
<path fill="#000000" opacity="1.000000" stroke="none" 
	d="
M449.566589,550.317505 
	C452.560303,548.708557 455.316284,547.733154 458.409973,547.659729 
	C468.201538,547.427124 474.542999,551.597473 476.116364,559.455017 
	C477.929169,568.507874 474.408478,576.137695 467.123505,578.944153 
	C459.138733,582.020142 449.499390,579.538269 445.601471,573.402771 
	C440.843628,565.913696 442.308533,556.720581 449.566589,550.317505 
M450.590546,568.479431 
	C453.552277,573.385559 458.233276,575.110168 463.707764,573.312317 
	C468.251343,571.820068 470.396118,567.631958 469.715820,561.580322 
	C469.185303,556.861450 465.819733,553.894531 460.533966,553.486084 
	C452.862610,552.893311 449.126282,558.115417 450.590546,568.479431 
z"/>
<path fill="#000000" opacity="1.000000" stroke="none" 
	d="
M310.203369,574.124084 
	C310.149628,577.108521 310.278717,579.921631 306.585938,579.828003 
	C303.013000,579.737366 303.614410,576.867249 303.603210,574.637085 
	C303.565582,567.148743 303.707275,559.658813 303.603638,552.171875 
	C303.558746,548.929260 304.943665,547.588684 308.079376,547.757874 
	C313.044586,548.025757 318.078613,547.048340 322.971527,548.636292 
	C328.245209,550.347717 330.406067,553.368164 330.367371,559.057861 
	C330.328339,564.796997 328.136780,567.725220 322.833557,569.387451 
	C320.064606,570.255310 317.244659,570.226135 314.417358,570.183105 
	C311.949768,570.145569 310.066467,570.672363 310.203369,574.124084 
M310.237579,556.882446 
	C310.420502,559.089844 309.075562,562.165161 311.515564,563.223267 
	C314.663208,564.588196 318.383209,564.478333 321.600800,562.900635 
	C324.522339,561.468079 324.700806,556.257263 321.722198,555.140320 
	C318.035767,553.757812 313.890991,552.632507 310.237579,556.882446 
z"/>
<path fill="#000000" opacity="1.000000" stroke="none" 
	d="
M679.257141,571.650391 
	C681.720703,573.827942 681.372375,575.424438 679.146912,577.143311 
	C672.930542,581.944641 661.455200,581.032532 656.230286,575.209106 
	C650.506042,568.829224 650.504700,558.548706 656.227234,552.378357 
	C661.505310,546.687256 673.166382,545.851013 679.206665,550.712097 
	C680.579041,551.816467 681.893433,552.955139 680.482239,554.822266 
	C679.311096,556.371704 677.887329,557.462402 675.812561,556.190186 
	C674.964111,555.669922 674.105652,555.138367 673.190979,554.758118 
	C668.670044,552.879272 663.508179,553.896362 660.869202,557.134766 
	C658.541138,559.991638 658.292725,566.734375 660.397705,569.933533 
	C662.620667,573.312073 667.797119,574.577698 672.567505,573.216064 
	C674.697571,572.608093 676.319458,570.131470 679.257141,571.650391 
z"/>
<path fill="#000000" opacity="1.000000" stroke="none" 
	d="
M537.462158,575.124268 
	C531.808594,580.926575 523.927307,581.802246 518.281555,577.479492 
	C516.866882,576.396362 515.041931,575.264282 516.681274,573.041931 
	C518.028625,571.215332 519.389648,570.758301 521.747498,571.970459 
	C529.065369,575.732544 532.457458,573.483948 532.134949,565.463257 
	C532.061340,563.633728 531.951355,561.792725 532.070923,559.971069 
	C532.313599,556.273315 531.519836,553.703796 526.981995,554.095093 
	C525.006531,554.265564 523.261963,553.586365 523.212341,551.141235 
	C523.158752,548.498596 524.850037,547.778748 527.138184,547.762573 
	C541.175171,547.663330 539.202942,546.678528 539.185303,558.580444 
	C539.177246,563.999390 540.383667,569.601746 537.462158,575.124268 
z"/>
<path fill="#000000" opacity="1.000000" stroke="none" 
	d="
M738.303284,575.649292 
	C738.310974,578.882385 736.824524,580.056641 734.187073,579.810852 
	C731.606079,579.570374 731.692078,577.558167 731.682556,575.704163 
	C731.655212,570.376465 731.468018,565.039978 731.710266,559.723633 
	C731.888794,555.805603 730.839417,553.604370 726.496094,554.127808 
	C725.681152,554.225952 724.830444,554.120361 724.005737,554.026184 
	C722.052917,553.803284 720.992615,552.723877 721.074768,550.708801 
	C721.146851,548.940735 722.119019,547.850281 723.874695,547.836243 
	C731.198486,547.777588 738.523193,547.774231 745.847046,547.824280 
	C747.895752,547.838257 748.822388,549.143433 748.743713,551.104187 
	C748.661804,553.145081 747.369568,553.835571 745.473267,554.123596 
	C738.305176,555.212524 738.306824,555.259155 738.296631,562.700684 
	C738.290955,566.863037 738.306763,571.025391 738.303284,575.649292 
z"/>
</svg>